#!OML:ASF F:\VICON\USERDATA\INSTALL\rory3\rory3.ASF
:FULLY-SPECIFIED
:DEGREES
402
root -9.03419 16.1403 14.2168 11.7157 4.59631 4.24346
lowerback 27.1483 0.1912 -0.118834
upperback 5.55823 0.533266 2.76819
thorax -8.86353 0.294194 2.97683
lowerneck -17.1547 -4.24951 -4.6317
upperneck 9.42027 -4.95479 2.34768
head 5.80577 -2.40122 0.99635
rclavicle 7.95139e-015 2.8625e-014
rhumerus -25.9952 -31.2357 -56.4326
rradius 74.2303
rwrist 29.1977
rhand -35.9699 -10.8469
rfingers 7.12502
rthumb -9.0808 -40.6314
lclavicle 7.95139e-015 2.8625e-014
lhumerus -37.5534 23.0359 59.7485
lradius 65.4629
lwrist -8.3321
lhand -29.1938 45.5238
lfingers 7.12502
lthumb -2.53884 75.4884
rfemur -48.1241 -0.709595 20.967
rtibia 72.6288
rfoot -18.3964 7.03017
rtoes 19.3369
lfemur -59.5179 -1.86679 -14.8338
ltibia 77.6151
lfoot -4.72746 -10.945
ltoes -25.7664
403
root -9.01377 16.1402 14.2626 11.5297 4.24155 4.32351
lowerback 27.1171 0.147878 -0.173402
upperback 5.55907 0.461107 2.7718
thorax -8.84335 0.260811 3.03665
lowerneck -17.3231 -4.14375 -4.67383
upperneck 9.66937 -4.77613 2.1921
head 5.90341 -2.32743 0.967116
rclavicle -1.35174e-014 -6.36111e-015
rhumerus -26.0864 -31.2472 -56.4103
rradius 74.1549
rwrist 28.9083
rhand -35.7378 -10.9655
rfingers 7.12502
rthumb -8.85676 -40.7596
lclavicle -1.35174e-014 -6.36111e-015
lhumerus -37.5632 23.0823 60.0147
lradius 65.4605
lwrist -8.43752
lhand -29.0645 45.653
lfingers 7.12502
lthumb -2.41396 75.6191
rfemur -47.6267 -0.582424 20.7163
rtibia 72.5243
rfoot -18.7459 7.36603
rtoes 19.0081
lfemur -59.8845 -1.87667 -14.82
ltibia 76.5625
lfoot -4.54158 -10.6945
ltoes -25.8895
404
root -8.99356 16.1382 14.3091 11.417 3.83304 4.35554
lowerback 26.9452 0.107426 -0.227268
upperback 5.58243 0.390547 2.77964
thorax -8.72678 0.226901 3.0978
lowerneck -17.5169 -4.04252 -4.72438
upperneck 9.8935 -4.61274 2.13408
head 6.00076 -2.25378 0.968775
rclavicle 0 1.59028e-015
rhumerus -26.1308 -31.2175 -56.4287
rradius 74.1085
rwrist 28.5756
rhand -35.6144 -10.9131
rfingers 7.12502
rthumb -8.73769 -40.7123
lclavicle 0 1.59028e-015
lhumerus -37.4256 23.3634 60.2266
lradius 65.1795
lwrist -8.72552
lhand -28.8998 45.2933
lfingers 7.12502
lthumb -2.25495 75.2611
rfemur -47.2737 -0.457611 20.5655
rtibia 72.4317
rfoot -19.0609 7.56536
rtoes 18.4187
lfemur -60.3273 -1.80224 -14.7305
ltibia 75.4496
lfoot -4.14673 -10.381
ltoes -25.4889
405
root -8.9665 16.146 14.3557 11.2476 3.47611 4.38903
lowerback 26.7737 0.0452359 -0.087902
upperback 5.69547 0.335824 2.71731
thorax -8.50925 0.193883 2.96141
lowerneck -17.6946 -3.94815 -4.74047
upperneck 9.981 -4.48533 2.21383
head 6.05564 -2.18495 1.00684
rclavicle 8.74653e-015 2.54444e-014
rhumerus -26.2388 -31.3962 -56.415
rradius 74.106
rwrist 28.485
rhand -35.3271 -11.0038
rfingers 7.12502
rthumb -8.46043 -40.8143
lclavicle 8.74653e-015 2.54444e-014
lhumerus -36.968 23.3422 60.6074
lradius 64.9987
lwrist -8.62317
lhand -28.8506 45.9558
lfingers 7.12502
lthumb -2.20739 75.9241
rfemur -46.8157 -0.503506 20.4139
rtibia 72.3064
rfoot -19.2344 7.90351
rtoes 19.2003
lfemur -60.5931 -1.85207 -14.6074
ltibia 74.2472
lfoot -3.87907 -10.0898
ltoes -25.8572
406
root -8.93948 16.1556 14.407 11.1012 3.07923 4.42356
lowerback 26.5984 -0.0236284 -0.021297
upperback 5.7751 0.260605 2.7301
thorax -8.32749 0.154168 2.95829
lowerneck -17.8656 -3.8259 -4.77828
upperneck 10.1172 -4.27582 2.01583
head 6.11616 -2.10051 0.968247
rclavicle 8.74653e-015 1.27222e-014
rhumerus -26.4063 -31.3747 -56.3258
rradius 74.2454
rwrist 28.5655
rhand -35.1783 -10.9964
rfingers 7.12502
rthumb -8.31684 -40.8126
lclavicle 8.74653e-015 1.27222e-014
lhumerus -36.7909 23.3072 61.0492
lradius 65.1645
lwrist -8.4604
lhand -29.0088 47.5306
lfingers 7.12502
lthumb -2.36022 77.4973
rfemur -46.3961 -0.542407 20.2535
rtibia 72.2145
rfoot -19.3621 8.29127
rtoes 20.0815
lfemur -60.8326 -1.89545 -14.4608
ltibia 73.0507
lfoot -3.72562 -9.91919
ltoes -26.7621
407
root -8.91257 16.1597 14.4533 10.9312 2.71136 4.29679
lowerback 26.69 -0.123458 0.231399
upperback 5.6313 0.202554 2.72025
thorax -8.53141 0.123066 2.82416
lowerneck -17.7081 -3.62575 -4.52649
upperneck 10.3804 -4.0237 1.64469
head 6.15348 -2.00101 0.836841
rclavicle -7.15625e-015 -2.70347e-014
rhumerus -27.0172 -31.1747 -56.119
rradius 74.351
rwrist 28.3202
rhand -35.1677 -10.585
rfingers 7.12502
rthumb -8.30664 -40.4017
lclavicle -7.15625e-015 -2.70347e-014
lhumerus -37.076 22.9356 61.1584
lradius 65.2831
lwrist -8.35235
lhand -29.0469 48.0474
lfingers 7.12502
lthumb -2.39702 78.0137
rfemur -45.9901 -0.524447 20.2998
rtibia 72.1575
rfoot -19.6073 8.45409
rtoes 19.8578
lfemur -61.1415 -1.89314 -14.0803
ltibia 71.9071
lfoot -3.12663 -9.87644
ltoes -26.2264
408
root -8.88483 16.1492 14.4901 10.7429 2.38928 4.24138
lowerback 26.9399 -0.247684 0.395566
upperback 5.42509 0.0939069 2.69711
thorax -8.88414 0.0710689 2.74753
lowerneck -17.4269 -3.40745 -4.47171
upperneck 10.6494 -3.74782 1.57097
head 6.18321 -1.87397 0.836062
rclavicle -7.15625e-015 7.15625e-015
rhumerus -27.4796 -31.0373 -56.0056
rradius 74.2849
rwrist 28.1089
rhand -35.1164 -10.1562
rfingers 7.12502
rthumb -8.25711 -39.9748
lclavicle -7.15625e-015 7.15625e-015
lhumerus -37.4666 22.7542 61.0737
lradius 65.1406
lwrist -8.76735
lhand -29.026 47.8733
lfingers 7.12502
lthumb -2.3768 77.8398
rfemur -45.7594 -0.579066 20.2958
rtibia 72.2253
rfoot -19.8967 8.42039
rtoes 17.6393
lfemur -61.4677 -1.92011 -13.7795
ltibia 70.8221
lfoot -2.57307 -9.80655
ltoes -26.2616
409
root -8.85187 16.1496 14.5352 10.5338 1.76195 4.31189
lowerback 27.0004 -0.24182 0.330828
upperback 5.42581 0.0783299 2.66404
thorax -8.91312 0.0639866 2.75444
lowerneck -17.4885 -3.19717 -4.42065
upperneck 10.9149 -3.45418 1.42939
head 6.26644 -1.74263 0.811268
rclavicle -1.59028e-015 -3.97569e-015
rhumerus -27.5511 -31.0493 -55.9464
rradius 74.1736
rwrist 28.0356
rhand -34.9134 -9.55874
rfingers 7.12502
rthumb -8.06121 -39.385
lclavicle -1.59028e-015 -3.97569e-015
lhumerus -37.5762 23.0224 61.1257
lradius 64.7753
lwrist -9.50192
lhand -29.6122 46.4532
lfingers 7.12502
lthumb -2.9429 76.4126
rfemur -45.4557 -0.464188 20.0583
rtibia 72.2745
rfoot -20.6413 8.12223
rtoes 11.9175
lfemur -61.5352 -1.74076 -13.7063
ltibia 69.7343
lfoot -2.28118 -9.67847
ltoes -26.3713
410
root -8.82737 16.1534 14.5839 10.2639 0.823391 4.2691
lowerback 26.9851 -0.0894096 0.192789
upperback 5.58005 0.222181 2.62
thorax -8.73845 0.130186 2.73392
lowerneck -17.8278 -3.06241 -4.33191
upperneck 11.2028 -3.25003 1.23998
head 6.40419 -1.65635 0.752243
rclavicle -8.74653e-015 -1.82882e-014
rhumerus -27.6629 -31.141 -56.0254
rradius 74.4324
rwrist 28.2697
rhand -34.489 -9.80451
rfingers 7.12502
rthumb -7.65158 -39.6461
lclavicle -8.74653e-015 -1.82882e-014
lhumerus -37.2792 22.9903 61.4243
lradius 65.2223
lwrist -8.17407
lhand -28.516 47.4937
lfingers 7.12502
lthumb -1.88431 77.4651
rfemur -45.0944 0.0399176 19.9162
rtibia 72.3002
rfoot -21.2859 7.74305
rtoes 6.27917
lfemur -61.448 -1.34101 -13.4266
ltibia 68.6493
lfoot -1.80242 -9.5872
ltoes -25.9262
411
root -8.80512 16.159 14.6316 9.9854 0.14227 4.19848
lowerback 26.925 -0.0226222 0.144406
upperback 5.78071 0.287929 2.64814
thorax -8.48592 0.157745 2.76757
lowerneck -18.0909 -2.94698 -4.39698
upperneck 11.2715 -3.06356 1.2272
head 6.46533 -1.56969 0.775317
rclavicle -7.95139e-015 2.70347e-014
rhumerus -27.7507 -31.2584 -56.0019
rradius 74.619
rwrist 28.3434
rhand -34.3428 -10.1748
rfingers 7.12502
rthumb -7.51049 -40.0215
lclavicle -7.95139e-015 2.70347e-014
lhumerus -36.8882 23.139 61.7295
lradius 65.1271
lwrist -8.04833
lhand -28.2522 47.6422
lfingers 7.12502
lthumb -1.62946 77.6157
rfemur -44.7008 0.354502 19.8629
rtibia 72.3131
rfoot -21.4395 7.82564
rtoes 4.89953
lfemur -61.3612 -1.11865 -13.0299
ltibia 67.5367
lfoot -1.18432 -9.50957
ltoes -24.3943
